<?xml version="1.0" encoding="utf-8" ?>
<svg xmlns="http://www.w3.org/2000/svg" xmlns:xlink="http://www.w3.org/1999/xlink" width="32" height="32">
	<path fill="#F6D4BA" transform="scale(0.0625 0.0625)" d="M178.761 76.6276C200.837 74.3223 228.393 83.8565 246.127 96.7502L252.946 96.7438C333.524 96.805 402.023 156.336 411.448 237.003C412.497 245.98 412.486 254.964 412.472 263.987C441.79 276.906 437.337 268.642 437.344 300.854L437.346 365.482C437.343 388.589 442.151 385.262 423.944 395.286L368.075 425.8C349.579 436 355.465 433.929 335.644 425.839C324.266 420.705 308.988 413.595 297.432 409.542C283.57 412.295 270.135 414.622 255.876 414.49C170.929 413.705 100.061 346.165 96.6838 261.07C95.9388 242.301 97.5929 252.526 88.6081 236.442C64.3383 192.996 72.6766 140.976 108.376 106.208C126.075 88.9718 153.885 76.3161 178.761 76.6276Z"/>
	<path fill="#F3B391" transform="scale(0.0625 0.0625)" d="M253.978 102.927C266.578 102.094 279.77 104.588 291.867 107.816C362.153 126.57 408.388 189.454 406.378 261.981C396.654 257.424 386.623 253.645 376.836 249.24L358.136 240.768C354.793 239.285 351.403 237.61 347.91 236.518C341.392 237.718 333.716 243.31 327.84 246.392L278.985 272.135C274.168 274.643 268.953 276.854 264.717 280.285C263.27 283.741 264.112 300.624 264.111 304.888L264.112 373.083C264.115 401.784 260.695 392.78 287.782 405.115C272.043 409.362 249.424 408.516 233.724 406.174C168.181 397.934 114.239 342.046 104.57 277.122C103.528 270.125 102.791 262.812 103.055 255.735C112.559 269.205 136.039 282.495 151.881 286.969C208.347 302.919 270.2 271.865 286.318 214.335C296.463 178.12 288.131 136.082 260.647 109.53C258.86 107.804 254.744 105.238 253.978 102.927Z"/>
	<path fill="#F6D4BA" transform="scale(0.0625 0.0625)" d="M178.761 88.2624C206.29 86.9158 233.177 98.3415 252.094 118.264C249.075 121.963 245.356 125.306 241.982 128.693L138.875 231.508L117.005 253.395C99.9135 236.245 89.3472 216.273 87.2263 191.914C82.3824 136.282 124.815 92.8528 178.761 88.2624Z"/>
	<path fill="#F6D4BA" transform="scale(0.0625 0.0625)" d="M259.727 127.443C263.165 130.92 267.121 138.044 269.358 142.547C303.327 210.94 241.618 291.113 166.306 278.059C160.902 277.122 155.672 275.502 150.482 273.76C141.861 270.559 133.743 266.254 126.106 261.136C135.236 251.153 145.214 241.97 154.701 232.333L234.805 152.326C243.1 144.022 251.569 135.882 259.727 127.443Z"/>
	<path fill="#F6D4BA" transform="scale(0.0625 0.0625)" d="M276.22 292.083C283.272 294.496 290 298.197 296.882 301.093C313.772 308.201 330.911 315.045 347.355 323.137L347.355 386.047C347.355 396.548 347.534 407.075 347.355 417.572C345.807 417.579 282.99 389.783 276.22 386.815L276.22 292.083Z"/>
	<path fill="#FEFADC" transform="scale(0.0625 0.0625)" d="M424.456 287.979L424.794 288.018C425.616 289.298 425.152 371.527 425.153 380.678C412.143 388.586 396.867 396.46 383.384 403.72C375.391 408.023 367.615 413.124 359.234 416.623L359.092 416.671L358.876 416.373C359.41 412.065 359.242 407.622 359.24 403.286L359.234 323.137C361.938 320.953 365.131 319.521 368.188 317.902L407.044 297.307C412.853 294.211 418.559 290.905 424.456 287.979Z"/>
	<path fill="#F6D4BA" transform="scale(0.0625 0.0625)" d="M347.355 250.018C351.368 250.839 356.86 253.801 360.811 255.525L388.499 267.607C397.123 271.31 407.916 274.509 415.86 279.265C410.01 281.295 404.461 284.929 398.957 287.773C383.626 295.693 368.546 304.094 353.184 311.949C351.176 311.533 348.924 310.235 347.018 309.417L330.424 302.144C315.291 295.536 299.895 289.413 284.857 282.602C305.764 271.95 326.785 261.305 347.355 250.018Z"/>
</svg>
