<?xml version="1.0" encoding="utf-8" ?>
<svg xmlns="http://www.w3.org/2000/svg" xmlns:xlink="http://www.w3.org/1999/xlink" width="32" height="32">
	<path fill="#023047" transform="scale(0.0625 0.0625)" d="M251.344 366.235L281.258 366.253C286.076 366.253 290.979 365.915 295.783 366.235C296.867 366.344 297.895 366.294 298.978 366.235L298.978 419.038L327.094 419.05C331.585 419.055 336.195 419.274 340.675 419.038C338.287 415.552 339.005 370.635 339.895 367.708C340.598 367.056 341.482 366.967 342.392 366.768C345.681 366.302 351.428 366.76 355.003 366.762L385.781 366.768C400.727 366.769 415.696 366.568 430.64 366.768C435.759 369.747 433.974 375.591 433.947 380.707L433.934 408.188C433.935 411.184 433.489 416.339 433.93 419.038C438.125 419.194 444.549 417.964 447.951 420.8C450.581 422.994 450.642 427.492 448.447 430.012C444.87 434.118 435.854 432.517 430.982 432.513L83.3775 432.484C78.5304 432.469 73.5672 432.764 68.7374 432.517C62.6738 432.208 59.4146 425.429 63.9515 420.941C66.3998 418.518 71.2382 419.108 74.4718 419.038L120.047 419.038L165.672 419.038L205.032 419.038C205.031 412.669 204.596 368.688 205.358 367.15C206.237 366.494 207.536 366.435 208.599 366.235L251.344 366.235Z"/>
	<path fill="#219EBC" transform="scale(0.0625 0.0625)" d="M251.344 366.235L281.258 366.253C286.076 366.253 290.979 365.915 295.783 366.235C296.867 366.344 297.895 366.294 298.978 366.235L298.978 419.038C283.849 419.217 266.38 419.751 251.344 419.038C246.215 418.87 241.027 419.03 235.893 419.031L205.032 419.038C205.031 412.669 204.596 368.688 205.358 367.15C206.237 366.494 207.536 366.435 208.599 366.235L251.344 366.235Z"/>
	<path fill="#8ECAE6" transform="scale(0.0625 0.0625)" d="M208.599 366.235L251.344 366.235L251.344 419.038C246.215 418.87 241.027 419.03 235.893 419.031L205.032 419.038C205.031 412.669 204.596 368.688 205.358 367.15C206.237 366.494 207.536 366.435 208.599 366.235Z"/>
	<path fill="#219EBC" transform="scale(0.0625 0.0625)" d="M342.392 366.768C345.681 366.302 351.428 366.76 355.003 366.762L385.781 366.768C400.727 366.769 415.696 366.568 430.64 366.768C435.759 369.747 433.974 375.591 433.947 380.707L433.934 408.188C433.935 411.184 433.489 416.339 433.93 419.038C417.943 419.374 401.769 419.31 385.781 419.038C380.714 418.896 375.603 419.037 370.532 419.038L340.675 419.038C338.287 415.552 339.005 370.635 339.895 367.708C340.598 367.056 341.482 366.967 342.392 366.768Z"/>
	<path fill="#8ECAE6" transform="scale(0.0625 0.0625)" d="M342.392 366.768C345.681 366.302 351.428 366.76 355.003 366.762L385.781 366.768C386.147 372.262 385.763 377.963 385.761 383.477L385.781 419.038C380.714 418.896 375.603 419.037 370.532 419.038L340.675 419.038C338.287 415.552 339.005 370.635 339.895 367.708C340.598 367.056 341.482 366.967 342.392 366.768Z"/>
	<path fill="#219EBC" transform="scale(0.0625 0.0625)" d="M77.5147 353.88C71.6501 349.265 74.4767 330.263 74.47 322.111C74.4653 316.385 71.775 302.565 79.5282 301.203C84.6515 300.302 90.2408 300.689 95.4377 300.687L120.047 300.697L146.87 300.69C169.271 300.694 167.248 299.494 167.262 320.032L167.245 346.78C167.216 350.029 166.972 352.037 164.166 353.88C165.8 354.44 166.317 355.119 167.247 356.543C167.265 358.954 167.317 361.37 167.247 363.78C166.357 365.111 165.584 366.008 164.166 366.768C165.48 367.403 166.355 368.004 167.247 369.157C167.352 377.175 168.606 413.545 165.672 419.038L120.047 419.038L74.4718 419.038L74.4609 385.664C74.4603 379.531 72.2578 370.059 77.5147 366.768C72.5042 364.575 72.5654 356.129 77.5147 353.88Z"/>
	<path fill="#219EBC" transform="scale(0.0625 0.0625)" d="M77.5147 353.88C71.6501 349.265 74.4767 330.263 74.47 322.111C74.4653 316.385 71.775 302.565 79.5282 301.203C84.6515 300.302 90.2408 300.689 95.4377 300.687L120.047 300.697L146.87 300.69C169.271 300.694 167.248 299.494 167.262 320.032L167.245 346.78C167.216 350.029 166.972 352.037 164.166 353.88C159.611 354.305 154.627 353.895 150.022 353.893L120.047 353.88L91.2769 353.885C86.7109 353.882 82.0667 353.585 77.5147 353.88Z"/>
	<path fill="#8ECAE6" transform="scale(0.0625 0.0625)" d="M77.5147 353.88C71.6501 349.265 74.4767 330.263 74.47 322.111C74.4653 316.385 71.775 302.565 79.5282 301.203C84.6515 300.302 90.2408 300.689 95.4377 300.687L120.047 300.697L120.047 353.88L91.2769 353.885C86.7109 353.882 82.0667 353.585 77.5147 353.88Z"/>
	<path fill="#8ECAE6" transform="scale(0.0625 0.0625)" d="M77.5147 366.768L78.8837 366.768C82.483 367.351 86.7268 366.781 90.4097 366.775L120.047 366.768L120.058 401.929C120.059 407.58 120.357 413.406 120.047 419.038L74.4718 419.038L74.4609 385.664C74.4603 379.531 72.2578 370.059 77.5147 366.768Z"/>
	<path fill="#023047" transform="scale(0.0625 0.0625)" d="M77.5147 353.88C82.0667 353.585 86.7109 353.882 91.2769 353.885L120.047 353.88L150.022 353.893C154.627 353.895 159.611 354.305 164.166 353.88C165.8 354.44 166.317 355.119 167.247 356.543C167.265 358.954 167.317 361.37 167.247 363.78C166.357 365.111 165.584 366.008 164.166 366.768C160.44 366.576 156.638 366.734 152.904 366.746L132.84 366.777C114.866 366.77 96.8542 366.518 78.8837 366.768L77.5147 366.768C72.5042 364.575 72.5654 356.129 77.5147 353.88Z"/>
	<path fill="#023047" transform="scale(0.0625 0.0625)" d="M293.858 121.541Q294.929 121.446 296.004 121.404Q297.079 121.362 298.155 121.373Q299.23 121.383 300.304 121.447Q301.378 121.51 302.447 121.626Q303.516 121.742 304.579 121.911Q305.641 122.079 306.694 122.299Q307.747 122.519 308.788 122.791Q309.828 123.063 310.855 123.385Q311.881 123.707 312.89 124.079Q313.899 124.452 314.889 124.873Q315.878 125.294 316.846 125.764Q317.814 126.233 318.758 126.749Q319.701 127.266 320.618 127.828Q321.536 128.39 322.424 128.996Q323.313 129.602 324.17 130.251Q325.028 130.9 325.853 131.591Q326.678 132.281 327.468 133.011Q328.258 133.741 329.011 134.509Q329.764 135.277 330.479 136.081Q331.193 136.885 331.868 137.722Q332.542 138.56 333.174 139.431Q333.807 140.301 334.396 141.201Q334.985 142.101 335.529 143.028Q336.073 143.956 336.571 144.91Q337.069 145.863 337.52 146.84Q337.97 147.816 338.373 148.814Q338.775 149.812 339.128 150.828Q339.48 151.844 339.783 152.876Q340.085 153.908 340.337 154.954Q340.588 156 340.788 157.057Q340.988 158.114 341.136 159.179Q341.284 160.245 341.379 161.316Q341.474 162.387 341.517 163.462Q341.56 164.537 341.55 165.613Q341.54 166.688 341.477 167.762Q341.414 168.836 341.299 169.905Q341.183 170.975 341.016 172.037Q340.848 173.1 340.628 174.152Q340.409 175.205 340.138 176.246Q339.867 177.287 339.545 178.314Q339.223 179.34 338.851 180.349Q338.48 181.359 338.059 182.349Q337.638 183.339 337.169 184.307Q336.701 185.275 336.185 186.219Q335.669 187.163 335.108 188.08Q334.546 188.998 333.941 189.887Q333.335 190.775 332.686 191.634Q332.038 192.492 331.348 193.317Q330.658 194.142 329.928 194.932Q329.199 195.723 328.431 196.476Q327.664 197.23 326.86 197.945Q326.057 198.66 325.219 199.335Q324.382 200.01 323.512 200.643Q322.642 201.276 321.743 201.865Q320.843 202.455 319.915 203Q318.988 203.544 318.035 204.043Q317.082 204.541 316.105 204.993Q315.129 205.444 314.131 205.846Q313.134 206.249 312.118 206.603Q311.102 206.956 310.07 207.259Q309.038 207.562 307.992 207.814Q306.947 208.066 305.89 208.267Q304.833 208.467 303.768 208.616Q302.702 208.764 301.631 208.86Q300.559 208.956 299.483 208.999Q298.408 209.043 297.331 209.033Q296.255 209.024 295.181 208.961Q294.106 208.899 293.036 208.784Q291.965 208.669 290.902 208.502Q289.839 208.334 288.785 208.115Q287.731 207.895 286.689 207.624Q285.648 207.354 284.62 207.032Q283.593 206.71 282.583 206.339Q281.573 205.967 280.582 205.546Q279.591 205.125 278.623 204.656Q277.654 204.187 276.709 203.671Q275.764 203.155 274.846 202.594Q273.928 202.032 273.038 201.426Q272.149 200.82 271.29 200.171Q270.431 199.522 269.606 198.831Q268.78 198.141 267.989 197.411Q267.198 196.681 266.444 195.913Q265.69 195.145 264.974 194.34Q264.258 193.536 263.583 192.698Q262.908 191.86 262.275 190.989Q261.642 190.119 261.052 189.218Q260.462 188.318 259.917 187.39Q259.372 186.461 258.874 185.507Q258.375 184.553 257.924 183.576Q257.473 182.599 257.07 181.601Q256.667 180.602 256.314 179.586Q255.961 178.569 255.658 177.536Q255.355 176.503 255.103 175.456Q254.852 174.41 254.652 173.352Q254.451 172.295 254.303 171.228Q254.155 170.162 254.06 169.09Q253.965 168.018 253.922 166.942Q253.879 165.867 253.889 164.79Q253.899 163.714 253.962 162.639Q254.025 161.565 254.141 160.495Q254.257 159.424 254.424 158.361Q254.593 157.298 254.813 156.244Q255.033 155.19 255.304 154.149Q255.575 153.107 255.898 152.08Q256.22 151.053 256.592 150.043Q256.965 149.033 257.386 148.043Q257.807 147.052 258.277 146.083Q258.746 145.115 259.263 144.17Q259.779 143.226 260.342 142.308Q260.904 141.39 261.511 140.501Q262.117 139.612 262.767 138.753Q263.416 137.895 264.107 137.07Q264.798 136.244 265.529 135.454Q266.259 134.663 267.028 133.909Q267.796 133.156 268.601 132.441Q269.405 131.725 270.244 131.051Q271.083 130.376 271.954 129.743Q272.824 129.11 273.725 128.521Q274.626 127.932 275.555 127.388Q276.483 126.843 277.438 126.345Q278.392 125.847 279.369 125.397Q280.347 124.946 281.345 124.544Q282.344 124.142 283.361 123.789Q284.378 123.436 285.411 123.134Q286.444 122.832 287.491 122.581Q288.538 122.33 289.595 122.13Q290.653 121.931 291.719 121.783Q292.786 121.636 293.858 121.541Z"/>
	<path fill="#FB8500" transform="scale(0.0625 0.0625)" d="M266.882 168.765Q266.824 168.27 266.783 167.773Q266.741 167.277 266.716 166.779Q266.69 166.281 266.68 165.783Q266.671 165.285 266.677 164.786Q266.684 164.288 266.706 163.79Q266.729 163.292 266.767 162.795Q266.806 162.298 266.86 161.803Q266.914 161.307 266.985 160.814Q267.055 160.321 267.141 159.83Q267.228 159.339 267.33 158.851Q267.432 158.363 267.549 157.879Q267.667 157.394 267.8 156.914Q267.933 156.434 268.082 155.958Q268.23 155.482 268.394 155.012Q268.558 154.541 268.737 154.076Q268.915 153.611 269.109 153.151Q269.303 152.692 269.511 152.239Q269.72 151.787 269.943 151.341Q270.165 150.895 270.402 150.457Q270.64 150.018 270.891 149.588Q271.142 149.157 271.407 148.735Q271.671 148.313 271.95 147.899Q272.228 147.486 272.519 147.081Q272.811 146.677 273.115 146.282Q273.419 145.888 273.736 145.503Q274.053 145.118 274.382 144.744Q274.711 144.369 275.052 144.006Q275.393 143.642 275.745 143.29Q276.098 142.938 276.461 142.597Q276.825 142.256 277.199 141.927Q277.574 141.598 277.958 141.281Q278.343 140.964 278.738 140.66Q279.133 140.356 279.537 140.064Q279.942 139.773 280.355 139.495Q280.769 139.217 281.191 138.952Q281.613 138.687 282.044 138.436Q282.474 138.185 282.913 137.948Q283.351 137.711 283.797 137.488Q284.243 137.265 284.696 137.057Q285.149 136.849 285.608 136.655Q286.067 136.461 286.532 136.283Q286.997 136.104 287.468 135.94Q287.939 135.777 288.415 135.628Q288.891 135.48 289.371 135.346Q289.851 135.213 290.336 135.096Q290.82 134.978 291.308 134.876Q291.796 134.774 292.287 134.688Q292.777 134.602 293.271 134.532Q293.764 134.462 294.26 134.407Q294.755 134.353 295.252 134.314Q295.749 134.276 296.247 134.254Q296.745 134.231 297.243 134.225Q297.742 134.218 298.24 134.228Q298.738 134.238 299.236 134.263Q299.734 134.289 300.23 134.331Q300.727 134.373 301.222 134.43Q301.717 134.488 302.21 134.561Q302.703 134.635 303.193 134.724Q303.684 134.814 304.171 134.919Q304.658 135.024 305.142 135.145Q305.625 135.266 306.105 135.402Q306.584 135.538 307.059 135.69Q307.534 135.841 308.003 136.008Q308.473 136.175 308.937 136.357Q309.893 136.732 310.822 137.169Q311.75 137.606 312.648 138.103Q313.546 138.601 314.409 139.157Q315.272 139.713 316.096 140.324Q316.921 140.936 317.702 141.601Q318.484 142.266 319.22 142.982Q319.957 143.697 320.644 144.46Q321.331 145.223 321.966 146.029Q323.644 148.16 324.926 150.551Q326.208 152.941 327.055 155.518Q327.245 156.095 327.411 156.678Q327.578 157.262 327.722 157.852Q327.866 158.442 327.986 159.037Q328.107 159.632 328.204 160.231Q328.301 160.83 328.375 161.433Q328.448 162.035 328.498 162.64Q328.548 163.245 328.574 163.852Q328.601 164.458 328.603 165.065Q328.605 165.672 328.584 166.279Q328.563 166.885 328.517 167.491Q328.472 168.096 328.403 168.699Q328.335 169.302 328.242 169.902Q328.15 170.502 328.034 171.098Q327.918 171.694 327.779 172.285Q327.64 172.876 327.477 173.461Q327.315 174.046 327.13 174.624Q326.945 175.202 326.738 175.773Q326.53 176.343 326.3 176.905Q326.071 177.467 325.819 178.019Q325.567 178.572 325.294 179.114Q325.021 179.656 324.727 180.187Q324.433 180.718 324.119 181.237Q323.804 181.757 323.469 182.263Q323.134 182.769 322.78 183.262Q322.426 183.755 322.052 184.234Q321.679 184.712 321.287 185.176Q320.895 185.64 320.485 186.087Q320.076 186.535 319.649 186.967Q319.222 187.398 318.778 187.813Q318.334 188.227 317.875 188.624Q317.415 189.021 316.941 189.399Q316.466 189.777 315.977 190.137Q315.488 190.497 314.985 190.837Q314.482 191.177 313.966 191.497Q313.451 191.817 312.923 192.116Q312.395 192.416 311.855 192.695Q311.316 192.974 310.766 193.231Q310.217 193.488 309.657 193.724Q309.098 193.959 308.53 194.173Q307.961 194.387 307.385 194.578Q306.809 194.769 306.226 194.937Q305.642 195.105 305.053 195.251Q304.464 195.396 303.869 195.518Q303.274 195.64 302.675 195.739Q302.077 195.838 301.474 195.913Q300.872 195.988 300.267 196.04Q299.662 196.091 299.056 196.119Q298.449 196.147 297.842 196.151Q297.235 196.155 296.629 196.135Q296.022 196.115 295.416 196.072Q294.811 196.028 294.208 195.961Q293.604 195.894 293.004 195.803Q292.404 195.712 291.808 195.597Q291.212 195.483 290.62 195.346Q290.029 195.208 289.444 195.047Q288.858 194.887 288.28 194.703Q287.701 194.52 287.13 194.314Q286.559 194.108 285.996 193.879Q285.434 193.651 284.881 193.401Q284.328 193.151 283.785 192.879Q283.242 192.608 282.71 192.315Q282.178 192.022 281.658 191.709Q281.138 191.396 280.631 191.062Q280.124 190.729 279.63 190.376Q277.491 188.846 275.64 186.978Q273.789 185.109 272.28 182.955Q271.178 181.383 270.279 179.687Q269.38 177.99 268.698 176.196Q268.015 174.402 267.56 172.537Q267.104 170.672 266.882 168.765Z"/>
	<path fill="#FB8500" transform="scale(0.0625 0.0625)" d="M327.055 155.518Q327.245 156.095 327.411 156.678Q327.578 157.262 327.722 157.852Q327.866 158.442 327.986 159.037Q328.107 159.632 328.204 160.231Q328.301 160.83 328.375 161.433Q328.448 162.035 328.498 162.64Q328.548 163.245 328.574 163.852Q328.601 164.458 328.603 165.065Q328.605 165.672 328.584 166.279Q328.563 166.885 328.517 167.491Q328.472 168.096 328.403 168.699Q328.335 169.302 328.242 169.902Q328.15 170.502 328.034 171.098Q327.918 171.694 327.779 172.285Q327.64 172.876 327.477 173.461Q327.315 174.046 327.13 174.624Q326.945 175.202 326.738 175.773Q326.53 176.343 326.3 176.905Q326.071 177.467 325.819 178.019Q325.567 178.572 325.294 179.114Q325.021 179.656 324.727 180.187Q324.433 180.718 324.119 181.237Q323.804 181.757 323.469 182.263Q323.134 182.769 322.78 183.262Q322.426 183.755 322.052 184.234Q321.679 184.712 321.287 185.176Q320.895 185.64 320.485 186.087Q320.076 186.535 319.649 186.967Q319.222 187.398 318.778 187.813Q318.334 188.227 317.875 188.624Q317.415 189.021 316.941 189.399Q316.466 189.777 315.977 190.137Q315.488 190.497 314.985 190.837Q314.482 191.177 313.966 191.497Q313.451 191.817 312.923 192.116Q312.395 192.416 311.855 192.695Q311.316 192.974 310.766 193.231Q310.217 193.488 309.657 193.724Q309.098 193.959 308.53 194.173Q307.961 194.387 307.385 194.578Q306.809 194.769 306.226 194.937Q305.642 195.105 305.053 195.251Q304.464 195.396 303.869 195.518Q303.274 195.64 302.675 195.739Q302.077 195.838 301.474 195.913Q300.872 195.988 300.267 196.04Q299.662 196.091 299.056 196.119Q298.449 196.147 297.842 196.151Q297.235 196.155 296.629 196.135Q296.022 196.115 295.416 196.072Q294.811 196.028 294.208 195.961Q293.604 195.894 293.004 195.803Q292.404 195.712 291.808 195.597Q291.212 195.483 290.62 195.346Q290.029 195.208 289.444 195.047Q288.858 194.887 288.28 194.703Q287.701 194.52 287.13 194.314Q286.559 194.108 285.996 193.879Q285.434 193.651 284.881 193.401Q284.328 193.151 283.785 192.879Q283.242 192.608 282.71 192.315Q282.178 192.022 281.658 191.709Q281.138 191.396 280.631 191.062Q280.124 190.729 279.63 190.376C282.452 187.422 286.507 185.13 289.784 182.626C302.249 173.103 314.315 164.667 326.89 155.638L327.055 155.518Z"/>
	<path fill="#FFB703" transform="scale(0.0625 0.0625)" d="M272.28 182.955C273.491 181.381 319.774 146.901 321.966 146.029Q323.644 148.16 324.926 150.551Q326.208 152.941 327.055 155.518L326.89 155.638C314.315 164.667 302.249 173.103 289.784 182.626C286.507 185.13 282.452 187.422 279.63 190.376Q277.491 188.846 275.64 186.978Q273.789 185.109 272.28 182.955Z"/>
	<path fill="#FFB703" transform="scale(0.0625 0.0625)" d="M266.882 168.765Q266.824 168.27 266.783 167.773Q266.741 167.277 266.716 166.779Q266.69 166.281 266.68 165.783Q266.671 165.285 266.677 164.786Q266.684 164.288 266.706 163.79Q266.729 163.292 266.767 162.795Q266.806 162.298 266.86 161.803Q266.914 161.307 266.985 160.814Q267.055 160.321 267.141 159.83Q267.228 159.339 267.33 158.851Q267.432 158.363 267.549 157.879Q267.667 157.394 267.8 156.914Q267.933 156.434 268.082 155.958Q268.23 155.482 268.394 155.012Q268.558 154.541 268.737 154.076Q268.915 153.611 269.109 153.151Q269.303 152.692 269.511 152.239Q269.72 151.787 269.943 151.341Q270.165 150.895 270.402 150.457Q270.64 150.018 270.891 149.588Q271.142 149.157 271.407 148.735Q271.671 148.313 271.95 147.899Q272.228 147.486 272.519 147.081Q272.811 146.677 273.115 146.282Q273.419 145.888 273.736 145.503Q274.053 145.118 274.382 144.744Q274.711 144.369 275.052 144.006Q275.393 143.642 275.745 143.29Q276.098 142.938 276.461 142.597Q276.825 142.256 277.199 141.927Q277.574 141.598 277.958 141.281Q278.343 140.964 278.738 140.66Q279.133 140.356 279.537 140.064Q279.942 139.773 280.355 139.495Q280.769 139.217 281.191 138.952Q281.613 138.687 282.044 138.436Q282.474 138.185 282.913 137.948Q283.351 137.711 283.797 137.488Q284.243 137.265 284.696 137.057Q285.149 136.849 285.608 136.655Q286.067 136.461 286.532 136.283Q286.997 136.104 287.468 135.94Q287.939 135.777 288.415 135.628Q288.891 135.48 289.371 135.346Q289.851 135.213 290.336 135.096Q290.82 134.978 291.308 134.876Q291.796 134.774 292.287 134.688Q292.777 134.602 293.271 134.532Q293.764 134.462 294.26 134.407Q294.755 134.353 295.252 134.314Q295.749 134.276 296.247 134.254Q296.745 134.231 297.243 134.225Q297.742 134.218 298.24 134.228Q298.738 134.238 299.236 134.263Q299.734 134.289 300.23 134.331Q300.727 134.373 301.222 134.43Q301.717 134.488 302.21 134.561Q302.703 134.635 303.193 134.724Q303.684 134.814 304.171 134.919Q304.658 135.024 305.142 135.145Q305.625 135.266 306.105 135.402Q306.584 135.538 307.059 135.69Q307.534 135.841 308.003 136.008Q308.473 136.175 308.937 136.357C306.459 139.955 301.851 142.427 298.4 144.977L279.412 158.987C275.749 161.707 270.444 166.553 266.882 168.765Z"/>
	<path fill="#FB8500" transform="scale(0.0625 0.0625)" d="M392.992 158.552Q391.965 158.537 390.94 158.472Q389.916 158.407 388.895 158.292Q387.875 158.178 386.861 158.013Q385.847 157.849 384.843 157.635Q383.838 157.422 382.845 157.16Q381.853 156.898 380.874 156.587Q379.895 156.277 378.932 155.92Q377.969 155.562 377.025 155.158Q376.081 154.754 375.158 154.305Q374.235 153.855 373.334 153.361Q372.434 152.867 371.559 152.33Q370.684 151.793 369.836 151.214Q368.988 150.635 368.169 150.015Q367.35 149.395 366.562 148.736Q365.775 148.077 365.02 147.381Q364.266 146.684 363.546 145.952Q362.826 145.219 362.143 144.453Q361.46 143.686 360.814 142.887Q360.169 142.088 359.564 141.259Q358.958 140.429 358.394 139.571Q357.83 138.714 357.308 137.829Q356.786 136.945 356.308 136.036Q355.83 135.127 355.396 134.196Q354.963 133.265 354.576 132.314Q354.188 131.363 353.847 130.395Q353.507 129.426 353.213 128.442Q352.92 127.457 352.675 126.46Q352.431 125.463 352.235 124.455Q352.039 123.447 351.892 122.431Q351.745 121.414 351.648 120.392Q351.551 119.37 351.504 118.344Q351.457 117.318 351.46 116.291Q351.463 115.264 351.516 114.239Q351.569 113.213 351.672 112.191Q351.774 111.169 351.927 110.154Q352.079 109.138 352.281 108.132Q352.483 107.125 352.733 106.129Q352.984 105.133 353.282 104.15Q353.581 103.168 353.927 102.201Q354.274 101.234 354.667 100.285Q355.059 99.3367 355.498 98.4082Q355.937 97.4797 356.42 96.5736Q356.903 95.6676 357.43 94.7861Q357.957 93.9047 358.526 93.05Q359.096 92.1952 359.706 91.3692Q360.316 90.5433 360.965 89.748Q361.615 88.9527 362.303 88.1899Q362.99 87.4272 363.714 86.6989Q364.438 85.9706 365.197 85.2784Q365.955 84.5862 366.747 83.9317Q367.538 83.2773 368.36 82.6622Q369.183 82.0471 370.034 81.4728Q370.885 80.8984 371.763 80.3662Q372.642 79.834 373.545 79.3452Q374.448 78.8564 375.374 78.4122Q376.3 77.968 377.246 77.5694Q378.193 77.1708 379.157 76.8187Q380.122 76.4667 381.103 76.162Q382.083 75.8574 383.078 75.6009Q384.072 75.3443 385.078 75.1366Q386.083 74.9288 387.098 74.7702Q388.112 74.6116 389.134 74.5027Q390.155 74.3937 391.18 74.3346Q392.205 74.2755 393.232 74.2664Q393.927 74.2602 394.621 74.277Q395.316 74.2937 396.01 74.3333Q396.703 74.373 397.395 74.4354Q398.087 74.4979 398.777 74.5832Q399.467 74.6684 400.153 74.7763Q400.839 74.8843 401.522 75.0148Q402.204 75.1453 402.882 75.2982Q403.56 75.4511 404.232 75.6263Q404.905 75.8015 405.571 75.9987Q406.237 76.196 406.896 76.4151Q407.556 76.6342 408.208 76.8749Q408.859 77.1156 409.503 77.3777Q410.146 77.6398 410.781 77.9229Q411.415 78.2061 412.04 78.51Q412.665 78.8139 413.28 79.1382Q413.894 79.4626 414.497 79.807Q415.101 80.1514 415.693 80.5155Q416.284 80.8796 416.864 81.263Q417.443 81.6465 418.01 82.0488Q418.576 82.4511 419.129 82.8719Q419.682 83.2927 420.221 83.7314Q420.76 84.1702 421.284 84.6265Q421.808 85.0828 422.316 85.5561Q422.825 86.0294 423.318 86.5192Q423.81 87.0091 424.287 87.5149Q424.763 88.0207 425.223 88.5419Q425.682 89.0631 426.124 89.5992Q426.566 90.1353 426.99 90.6857Q427.414 91.2361 427.82 91.8001Q428.226 92.3642 428.613 92.9413Q429 93.5184 429.367 94.108Q429.735 94.6975 430.083 95.2989Q430.431 95.9003 430.759 96.5128Q431.087 97.1253 431.395 97.7483Q431.702 98.3712 431.989 99.004Q432.276 99.6368 432.542 100.279Q432.808 100.921 433.053 101.571Q433.298 102.221 433.521 102.879Q433.744 103.537 433.945 104.202Q434.146 104.867 434.325 105.539Q434.505 106.21 434.662 106.887Q434.819 107.564 434.953 108.245Q435.088 108.927 435.2 109.613Q435.312 110.298 435.401 110.987Q435.491 111.676 435.557 112.368Q435.624 113.06 435.668 113.753Q435.712 114.447 435.733 115.141Q435.754 115.836 435.751 116.53Q435.75 117.225 435.725 117.919Q435.7 118.614 435.652 119.307Q435.604 120 435.534 120.691Q435.463 121.383 435.37 122.071Q435.276 122.76 435.161 123.445Q435.045 124.13 434.906 124.811Q434.768 125.492 434.607 126.167Q434.446 126.843 434.263 127.514Q434.08 128.184 433.875 128.848Q433.67 129.512 433.443 130.168Q433.216 130.825 432.968 131.474Q432.719 132.123 432.45 132.763Q432.18 133.404 431.89 134.035Q431.599 134.666 431.288 135.287Q430.977 135.908 430.645 136.519Q430.313 137.13 429.962 137.729Q429.611 138.328 429.24 138.916Q428.869 139.503 428.478 140.078Q428.088 140.653 427.679 141.215Q427.27 141.777 426.843 142.325Q426.416 142.873 425.971 143.406Q425.526 143.94 425.063 144.458Q424.601 144.977 424.122 145.48Q423.642 145.983 423.147 146.47Q422.651 146.957 422.14 147.428Q421.629 147.898 421.102 148.351Q420.576 148.805 420.034 149.24Q419.493 149.676 418.938 150.094Q418.382 150.511 417.814 150.91Q417.245 151.31 416.663 151.69Q416.082 152.07 415.488 152.431Q414.894 152.791 414.289 153.132Q413.683 153.473 413.067 153.794Q412.451 154.115 411.824 154.415Q411.197 154.716 410.561 154.995Q409.925 155.275 409.28 155.533Q408.635 155.792 407.982 156.029Q407.329 156.266 406.668 156.481Q406.008 156.696 405.34 156.89Q404.673 157.083 404 157.255Q403.326 157.426 402.648 157.575Q401.969 157.724 401.286 157.851Q400.603 157.977 399.916 158.081Q399.229 158.185 398.539 158.267Q397.849 158.348 397.156 158.407Q396.464 158.465 395.77 158.501Q395.076 158.537 394.381 158.549Q393.687 158.562 392.992 158.552Z"/>
	<path fill="#FFB703" transform="scale(0.0625 0.0625)" d="M392.992 158.552Q391.965 158.537 390.94 158.472Q389.916 158.407 388.895 158.292Q387.875 158.178 386.861 158.013Q385.847 157.849 384.843 157.635Q383.838 157.422 382.845 157.16Q381.853 156.898 380.874 156.587Q379.895 156.277 378.932 155.92Q377.969 155.562 377.025 155.158Q376.081 154.754 375.158 154.305Q374.235 153.855 373.334 153.361Q372.434 152.867 371.559 152.33Q370.684 151.793 369.836 151.214Q368.988 150.635 368.169 150.015Q367.35 149.395 366.562 148.736Q365.775 148.077 365.02 147.381Q364.266 146.684 363.546 145.952Q362.826 145.219 362.143 144.453Q361.46 143.686 360.814 142.887Q360.169 142.088 359.564 141.259Q358.958 140.429 358.394 139.571Q357.83 138.714 357.308 137.829Q356.786 136.945 356.308 136.036Q355.83 135.127 355.396 134.196Q354.963 133.265 354.576 132.314Q354.188 131.363 353.847 130.395Q353.507 129.426 353.213 128.442Q352.92 127.457 352.675 126.46Q352.431 125.463 352.235 124.455Q352.039 123.447 351.892 122.431Q351.745 121.414 351.648 120.392Q351.551 119.37 351.504 118.344Q351.457 117.318 351.46 116.291Q351.463 115.264 351.516 114.239Q351.569 113.213 351.672 112.191Q351.774 111.169 351.927 110.154Q352.079 109.138 352.281 108.132Q352.483 107.125 352.733 106.129Q352.984 105.133 353.282 104.15Q353.581 103.168 353.927 102.201Q354.274 101.234 354.667 100.285Q355.059 99.3367 355.498 98.4082Q355.937 97.4797 356.42 96.5736Q356.903 95.6676 357.43 94.7861Q357.957 93.9047 358.526 93.05Q359.096 92.1952 359.706 91.3692Q360.316 90.5433 360.965 89.748Q361.615 88.9527 362.303 88.1899Q362.99 87.4272 363.714 86.6989Q364.438 85.9706 365.197 85.2784Q365.955 84.5862 366.747 83.9317Q367.538 83.2773 368.36 82.6622Q369.183 82.0471 370.034 81.4728Q370.885 80.8984 371.763 80.3662Q372.642 79.834 373.545 79.3452Q374.448 78.8564 375.374 78.4122Q376.3 77.968 377.246 77.5694Q378.193 77.1708 379.157 76.8187Q380.122 76.4667 381.103 76.162Q382.083 75.8574 383.078 75.6009Q384.072 75.3443 385.078 75.1366Q386.083 74.9288 387.098 74.7702Q388.112 74.6116 389.134 74.5027Q390.155 74.3937 391.18 74.3346Q392.205 74.2755 393.232 74.2664C392.815 84.2385 393.087 94.3092 393.072 104.293L392.992 158.552Z"/>
	<path fill="#219EBC" transform="scale(0.0625 0.0625)" d="M385.781 232.998L413.514 232.986C419.121 232.986 432.186 230.614 433.68 238.154C434.968 244.662 434.256 275.781 433.927 283.224C433.815 285.744 432.458 286.719 430.64 288.117L385.781 288.117L342.392 288.117C339.344 286.208 339.492 284.7 339.445 281.181C339.309 270.989 338.134 247.88 339.59 238.377C340.771 230.666 353.633 232.984 359.062 232.984L385.781 232.998Z"/>
	<path fill="#8ECAE6" transform="scale(0.0625 0.0625)" d="M342.392 288.117C339.344 286.208 339.492 284.7 339.445 281.181C339.309 270.989 338.134 247.88 339.59 238.377C340.771 230.666 353.633 232.984 359.062 232.984L385.781 232.998L385.781 288.117L342.392 288.117Z"/>
	<path fill="#219EBC" transform="scale(0.0625 0.0625)" d="M205.032 286.267C204.782 284.247 204.969 282.121 204.996 280.085L205.029 270.481C205.032 260.256 204.777 249.979 205.039 239.76C205.162 234.951 207.085 233.467 211.638 233.083C221.453 232.254 241.356 232.365 251.344 232.998L280.442 232.987C286.505 232.981 297.667 230.337 298.865 238.81C299.511 243.379 298.956 249.933 298.956 254.69C298.955 264.27 299.857 275.919 298.978 285.219C298.05 286.7 297.365 287.385 295.783 288.117C291.088 287.867 286.269 288.106 281.559 288.11L251.344 288.117L222.521 288.113C217.896 288.113 213.219 288.262 208.599 288.117C207.327 287.572 206.109 287.171 205.032 286.267Z"/>
	<path fill="#8ECAE6" transform="scale(0.0625 0.0625)" d="M205.032 286.267C204.782 284.247 204.969 282.121 204.996 280.085L205.029 270.481C205.032 260.256 204.777 249.979 205.039 239.76C205.162 234.951 207.085 233.467 211.638 233.083C221.453 232.254 241.356 232.365 251.344 232.998L251.344 288.117L222.521 288.113C217.896 288.113 213.219 288.262 208.599 288.117C207.327 287.572 206.109 287.171 205.032 286.267Z"/>
	<path fill="#FB8500" transform="scale(0.0625 0.0625)" d="M342.392 300.697C347.017 301.023 351.834 300.703 356.481 300.7L385.781 300.697L430.64 300.697C436.474 304.779 433.953 315.888 433.944 322.992L433.931 338.961C433.926 344.684 435.512 350.788 429.679 353.88L385.781 353.88L357.248 353.857C352.798 353.859 348.128 354.241 343.703 353.88C342.136 353.429 340.803 352.904 339.437 352.01C338.509 339.003 338.962 318.913 339.389 305.753C339.483 302.845 339.301 301.442 342.392 300.697Z"/>
	<path fill="#FFB703" transform="scale(0.0625 0.0625)" d="M342.392 300.697C347.017 301.023 351.834 300.703 356.481 300.7L385.781 300.697C385.99 306.646 385.786 312.653 385.784 318.609L385.781 353.88L357.248 353.857C352.798 353.859 348.128 354.241 343.703 353.88C342.136 353.429 340.803 352.904 339.437 352.01C338.509 339.003 338.962 318.913 339.389 305.753C339.483 302.845 339.301 301.442 342.392 300.697Z"/>
	<path fill="#FB8500" transform="scale(0.0625 0.0625)" d="M295.783 300.697C296.877 301.269 298.291 301.813 298.671 303.112C299.213 304.964 299.35 349.194 298.817 351.98C298.06 352.937 296.911 353.467 295.783 353.88C281.002 354.208 266.134 353.888 251.344 353.88C237.112 353.88 222.825 354.159 208.599 353.88C207.615 353.204 206.202 352.399 205.6 351.357C204.627 349.674 204.746 305.284 205.545 303.108C206.032 301.783 207.418 301.239 208.599 300.697C222.83 300.952 237.108 300.695 251.344 300.697C266.113 300.472 281.015 300.445 295.783 300.697Z"/>
	<path fill="#FFB703" transform="scale(0.0625 0.0625)" d="M208.599 300.697C222.83 300.952 237.108 300.695 251.344 300.697L251.351 336.178C251.352 342.055 251.574 348.014 251.344 353.88C237.112 353.88 222.825 354.159 208.599 353.88C207.615 353.204 206.202 352.399 205.6 351.357C204.627 349.674 204.746 305.284 205.545 303.108C206.032 301.783 207.418 301.239 208.599 300.697Z"/>
	<path fill="#023047" transform="scale(0.0625 0.0625)" d="M385.781 353.88L429.679 353.88C434.922 356.741 435.426 362.986 430.64 366.768C415.696 366.568 400.727 366.769 385.781 366.768L355.003 366.762C351.428 366.76 345.681 366.302 342.392 366.768C340.126 364.798 339.339 363.271 338.662 360.362C339.507 357.176 340.547 355.395 343.703 353.88C348.128 354.241 352.798 353.859 357.248 353.857L385.781 353.88Z"/>
	<path fill="#023047" transform="scale(0.0625 0.0625)" d="M385.781 288.117L430.64 288.117C435.669 291.405 436.105 297.372 430.64 300.697L385.781 300.697L356.481 300.7C351.834 300.703 347.017 301.023 342.392 300.697C338.032 297.081 338.336 291.813 342.392 288.117L385.781 288.117Z"/>
	<path fill="#023047" transform="scale(0.0625 0.0625)" d="M251.344 288.117L281.559 288.11C286.269 288.106 291.088 287.867 295.783 288.117C300.631 291.146 300.972 297.681 295.783 300.697C281.015 300.445 266.113 300.472 251.344 300.697C237.108 300.695 222.83 300.952 208.599 300.697C202.389 297.833 203.382 291.148 208.599 288.117C213.219 288.262 217.896 288.113 222.521 288.113L251.344 288.117Z"/>
	<path fill="#023047" transform="scale(0.0625 0.0625)" d="M208.599 353.88C222.825 354.159 237.112 353.88 251.344 353.88C266.134 353.888 281.002 354.208 295.783 353.88C300.579 357.166 300.683 362.757 295.783 366.235C290.979 365.915 286.076 366.253 281.258 366.253L251.344 366.235L208.599 366.235C203.241 363.409 201.952 355.912 208.599 353.88Z"/>
</svg>
